<?xml version="1.0" standalone="no"?><!DOCTYPE svg PUBLIC "-//W3C//DTD SVG 1.1//EN" "http://www.w3.org/Graphics/SVG/1.1/DTD/svg11.dtd"><svg class="icon" height="512" viewBox="0 0 1024 1024" version="1.1" xmlns="http://www.w3.org/2000/svg"><path d="M924.5257 302.8323l-88.6491 88.67-206.8689-206.8898 88.6491-88.67c32.6426-32.6426 85.5771-32.6426 118.2198 0l88.6491 88.67C957.1892 217.2552 957.1892 270.1897 924.5257 302.8323zM747.2065 480.1515l-206.8689-206.8689 44.3455-44.3455 206.8689 206.8898L747.2065 480.1515zM349.8109 864.8411c-56.8842 21.3368-161.1233 60.416-228.958 85.8488-12.8313 5.0573-61.231 2.466-40.96-45.0769 22.946-66.2674 56.7589-164.049 76.0686-219.8047 14.0643-39.3509 19.5605-49.6536 47.8981-76.0477 82.6514-82.6514 292.1326-292.1326 292.1326-292.1326l206.8689 206.8689c0 0-196.7125 204.6119-278.0682 289.2278C398.3151 844.0268 386.7376 851.153 349.8109 864.8411z" /></svg>